inDegrees=no
DataType=double
version=3
OpenSimVersion=4.4-2022-10-11-798caa840
endheader
time	elv_angle	shoulder_elv	shoulder_rot	elbow_flexion	pro_sup	deviation	flexion
2.4020851434	0.3312713719	0.6805167939	-0.1046120122	1.4836196500	0.0000000000	0.0000000000	0.0000000000
2.4062554301	0.3313129993	0.6805365121	-0.1046251577	1.4836086954	0.0000000000	0.0000000000	0.0000000000
2.4104257168	0.3313511759	0.6805545958	-0.1046372134	1.4835986489	0.0000000000	0.0000000000	0.0000000000
2.4145960035	0.3313860363	0.6805711086	-0.1046482220	1.4835894751	0.0000000000	0.0000000000	0.0000000000
2.4187662902	0.3314177169	0.6805861152	-0.1046582264	1.4835811381	0.0000000000	0.0000000000	0.0000000000
2.4229365769	0.3314463565	0.6805996813	-0.1046672705	1.4835736014	0.0000000000	0.0000000000	0.0000000000
2.4271068636	0.3314720957	0.6806118735	-0.1046753986	1.4835668279	0.0000000000	0.0000000000	0.0000000000
2.4312771503	0.3314950773	0.6806227596	-0.1046826560	1.4835607801	0.0000000000	0.0000000000	0.0000000000
2.4354474370	0.3315154462	0.6806324080	-0.1046890883	1.4835554199	0.0000000000	0.0000000000	0.0000000000
2.4396177237	0.3315333495	0.6806408885	-0.1046947419	1.4835507085	0.0000000000	0.0000000000	0.0000000000
2.4437880104	0.3315489363	0.6806482717	-0.1046996641	1.4835466067	0.0000000000	0.0000000000	0.0000000000
2.4479582971	0.3315623579	0.6806546293	-0.1047039025	1.4835430747	0.0000000000	0.0000000000	0.0000000000
2.4521285838	0.3315737678	0.6806600340	-0.1047075056	1.4835400721	0.0000000000	0.0000000000	0.0000000000
2.4562988705	0.3315833215	0.6806645594	-0.1047105226	1.4835375580	0.0000000000	0.0000000000	0.0000000000
2.4604691573	0.3315911767	0.6806682804	-0.1047130032	1.4835354908	0.0000000000	0.0000000000	0.0000000000
2.4646394440	0.3315974935	0.6806712725	-0.1047149980	1.4835338285	0.0000000000	0.0000000000	0.0000000000
2.4688097307	0.3316024339	0.6806736127	-0.1047165581	1.4835325284	0.0000000000	0.0000000000	0.0000000000
2.4729800174	0.3316061623	0.6806753788	-0.1047177355	1.4835315473	0.0000000000	0.0000000000	0.0000000000
2.4771503041	0.3316088450	0.6806766496	-0.1047185826	1.4835308413	0.0000000000	0.0000000000	0.0000000000
2.4813205908	0.3316106509	0.6806775050	-0.1047191529	1.4835303660	0.0000000000	0.0000000000	0.0000000000
2.4854908775	0.3316117508	0.6806780260	-0.1047195003	1.4835300766	0.0000000000	0.0000000000	0.0000000000
2.4896611642	0.3316123180	0.6806782947	-0.1047196794	1.4835299273	0.0000000000	0.0000000000	0.0000000000
2.4938314509	0.3316125278	0.6806783940	-0.1047197456	1.4835298721	0.0000000000	0.0000000000	0.0000000000
2.4980017376	0.3316125579	0.6806784083	-0.1047197551	1.4835298642	0.0000000000	0.0000000000	0.0000000000
2.5021720243	0.3316125579	0.6806784083	-0.1047197551	1.4835298642	0.0000000000	0.0000000000	0.0000000000
2.5063423110	0.3316125579	0.6806784083	-0.1047197551	1.4835298642	0.0000000000	0.0000000000	0.0000000000
2.5105125977	0.3316125579	0.6806784083	-0.1047197551	1.4835298642	0.0000000000	0.0000000000	0.0000000000
2.5146828844	0.3316125579	0.6806784083	-0.1047197551	1.4835298642	0.0000000000	0.0000000000	0.0000000000
2.5188531712	0.3316125579	0.6806784083	-0.1047197551	1.4835298642	0.0000000000	0.0000000000	0.0000000000
2.5230234579	0.3316125579	0.6806784083	-0.1047197551	1.4835298642	0.0000000000	0.0000000000	0.0000000000
2.5271937446	0.3316125579	0.6806784083	-0.1047197551	1.4835298642	0.0000000000	0.0000000000	0.0000000000
2.5313640313	0.3316125579	0.6806784083	-0.1047197551	1.4835298642	0.0000000000	0.0000000000	0.0000000000
2.5355343180	0.3316125579	0.6806784083	-0.1047197551	1.4835298642	0.0000000000	0.0000000000	0.0000000000
2.5397046047	0.3316125579	0.6806784083	-0.1047197551	1.4835298642	0.0000000000	0.0000000000	0.0000000000
2.5438748914	0.3316125579	0.6806784083	-0.1047197551	1.4835298642	0.0000000000	0.0000000000	0.0000000000
2.5480451781	0.3316125579	0.6806784083	-0.1047197551	1.4835298642	0.0000000000	0.0000000000	0.0000000000
2.5522154648	0.3316125579	0.6806784083	-0.1047197551	1.4835298642	0.0000000000	0.0000000000	0.0000000000
2.5563857515	0.3316125579	0.6806784083	-0.1047197551	1.4835298642	0.0000000000	0.0000000000	0.0000000000
2.5605560382	0.3316125579	0.6806784083	-0.1047197551	1.4835298642	0.0000000000	0.0000000000	0.0000000000
2.5647263249	0.3316125579	0.6806784083	-0.1047197551	1.4835298642	0.0000000000	0.0000000000	0.0000000000
2.5688966116	0.3316125579	0.6806784083	-0.1047197551	1.4835298642	0.0000000000	0.0000000000	0.0000000000
2.5730668983	0.3316125579	0.6806784083	-0.1047197551	1.4835298642	0.0000000000	0.0000000000	0.0000000000
2.5772371851	0.3316125579	0.6806784083	-0.1047197551	1.4835298642	0.0000000000	0.0000000000	0.0000000000
2.5814074718	0.3316125579	0.6806784083	-0.1047197551	1.4835298642	0.0000000000	0.0000000000	0.0000000000
2.5855777585	0.3316125579	0.6806784083	-0.1047197551	1.4835298642	0.0000000000	0.0000000000	0.0000000000
2.5897480452	0.3316125579	0.6806784083	-0.1047197551	1.4835298642	0.0000000000	0.0000000000	0.0000000000
2.5939183319	0.3316125579	0.6806784083	-0.1047197551	1.4835298642	0.0000000000	0.0000000000	0.0000000000
2.5980886186	0.3316125579	0.6806784083	-0.1047197551	1.4835298642	0.0000000000	0.0000000000	0.0000000000
2.6022589053	0.3316125579	0.6806784083	-0.1047197551	1.4835298642	0.0000000000	0.0000000000	0.0000000000
2.6064291920	0.3316125579	0.6806784083	-0.1047197551	1.4835298642	0.0000000000	0.0000000000	0.0000000000
2.6105994787	0.3316125579	0.6806784083	-0.1047197551	1.4835298642	0.0000000000	0.0000000000	0.0000000000
2.6147697654	0.3316125579	0.6806784083	-0.1047197551	1.4835298642	0.0000000000	0.0000000000	0.0000000000
2.6189400521	0.3316125579	0.6806784083	-0.1047197551	1.4835298642	0.0000000000	0.0000000000	0.0000000000
2.6231103388	0.3316125579	0.6806784083	-0.1047197551	1.4835298642	0.0000000000	0.0000000000	0.0000000000
2.6272806255	0.3316125579	0.6806784083	-0.1047197551	1.4835298642	0.0000000000	0.0000000000	0.0000000000
2.6314509123	0.3316125579	0.6806784083	-0.1047197551	1.4835298642	0.0000000000	0.0000000000	0.0000000000
2.6356211990	0.3316125579	0.6806784083	-0.1047197551	1.4835298642	0.0000000000	0.0000000000	0.0000000000
2.6397914857	0.3316125579	0.6806784083	-0.1047197551	1.4835298642	0.0000000000	0.0000000000	0.0000000000
2.6439617724	0.3316125579	0.6806784083	-0.1047197551	1.4835298642	0.0000000000	0.0000000000	0.0000000000
2.6481320591	0.3316125579	0.6806784083	-0.1047197551	1.4835298642	0.0000000000	0.0000000000	0.0000000000
2.6523023458	0.3316125579	0.6806784083	-0.1047197551	1.4835298642	0.0000000000	0.0000000000	0.0000000000
2.6564726325	0.3316125579	0.6806784083	-0.1047197551	1.4835298642	0.0000000000	0.0000000000	0.0000000000
2.6606429192	0.3316125579	0.6806784083	-0.1047197551	1.4835298642	0.0000000000	0.0000000000	0.0000000000
2.6648132059	0.3316125579	0.6806784083	-0.1047197551	1.4835298642	0.0000000000	0.0000000000	0.0000000000
2.6689834926	0.3316125579	0.6806784083	-0.1047197551	1.4835298642	0.0000000000	0.0000000000	0.0000000000
2.6731537793	0.3316125579	0.6806784083	-0.1047197551	1.4835298642	0.0000000000	0.0000000000	0.0000000000
